<svg width="250" height="250" viewBox="0 0 250 250" fill="none" xmlns="http://www.w3.org/2000/svg">
<rect x="1.97021" y="1.00012" width="247" height="248" rx="123.5" stroke="#EDF2F5" stroke-width="2"/>
<path d="M69.9808 115V98.2001H72.3808V113.104H80.0608V115H69.9808ZM87.4444 115.288C86.2924 115.288 85.2684 115.024 84.3724 114.496C83.4764 113.968 82.7724 113.232 82.2604 112.288C81.7644 111.344 81.5164 110.248 81.5164 109C81.5164 107.72 81.7644 106.608 82.2604 105.664C82.7724 104.704 83.4764 103.96 84.3724 103.432C85.2684 102.888 86.3084 102.616 87.4924 102.616C88.6764 102.616 89.6924 102.88 90.5404 103.408C91.3884 103.936 92.0444 104.64 92.5084 105.52C92.9724 106.384 93.2044 107.344 93.2044 108.4C93.2044 108.56 93.1964 108.736 93.1804 108.928C93.1804 109.104 93.1724 109.304 93.1564 109.528H83.2684V107.824H90.8044C90.7564 106.816 90.4204 106.032 89.7964 105.472C89.1724 104.896 88.3964 104.608 87.4684 104.608C86.8124 104.608 86.2124 104.76 85.6684 105.064C85.1244 105.352 84.6844 105.784 84.3484 106.36C84.0284 106.92 83.8684 107.632 83.8684 108.496V109.168C83.8684 110.064 84.0284 110.824 84.3484 111.448C84.6844 112.056 85.1244 112.52 85.6684 112.84C86.2124 113.144 86.8044 113.296 87.4444 113.296C88.2124 113.296 88.8444 113.128 89.3404 112.792C89.8364 112.456 90.2044 112 90.4444 111.424H92.8444C92.6364 112.16 92.2844 112.824 91.7884 113.416C91.2924 113.992 90.6764 114.448 89.9404 114.784C89.2204 115.12 88.3884 115.288 87.4444 115.288ZM100.271 115C99.5187 115 98.8627 114.88 98.3027 114.64C97.7427 114.4 97.3107 114 97.0067 113.44C96.7027 112.88 96.5507 112.12 96.5507 111.16V104.944H94.4627V102.904H96.5507L96.8387 99.8801H98.9507V102.904H102.383V104.944H98.9507V111.184C98.9507 111.872 99.0947 112.344 99.3827 112.6C99.6707 112.84 100.167 112.96 100.871 112.96H102.263V115H100.271ZM107.813 98.2001L105.557 103.912H103.877L105.197 98.2001H107.813ZM113.495 115.288C112.471 115.288 111.575 115.12 110.807 114.784C110.039 114.448 109.431 113.976 108.983 113.368C108.535 112.76 108.263 112.048 108.167 111.232H110.615C110.695 111.616 110.847 111.968 111.071 112.288C111.311 112.608 111.631 112.864 112.031 113.056C112.447 113.248 112.935 113.344 113.495 113.344C114.023 113.344 114.455 113.272 114.791 113.128C115.143 112.968 115.399 112.76 115.559 112.504C115.719 112.232 115.799 111.944 115.799 111.64C115.799 111.192 115.687 110.856 115.463 110.632C115.255 110.392 114.935 110.208 114.503 110.08C114.087 109.936 113.583 109.808 112.991 109.696C112.431 109.6 111.887 109.472 111.359 109.312C110.847 109.136 110.383 108.92 109.967 108.664C109.567 108.408 109.247 108.088 109.007 107.704C108.767 107.304 108.647 106.816 108.647 106.24C108.647 105.552 108.831 104.936 109.199 104.392C109.567 103.832 110.087 103.4 110.759 103.096C111.447 102.776 112.255 102.616 113.183 102.616C114.527 102.616 115.607 102.936 116.423 103.576C117.239 104.216 117.719 105.12 117.863 106.288H115.535C115.471 105.744 115.231 105.328 114.815 105.04C114.399 104.736 113.847 104.584 113.159 104.584C112.471 104.584 111.943 104.72 111.575 104.992C111.207 105.264 111.023 105.624 111.023 106.072C111.023 106.36 111.127 106.616 111.335 106.84C111.543 107.064 111.847 107.256 112.247 107.416C112.663 107.56 113.167 107.696 113.759 107.824C114.607 107.984 115.367 108.184 116.039 108.424C116.711 108.664 117.247 109.016 117.647 109.48C118.047 109.944 118.247 110.608 118.247 111.472C118.263 112.224 118.071 112.888 117.671 113.464C117.287 114.04 116.735 114.488 116.015 114.808C115.311 115.128 114.471 115.288 113.495 115.288ZM130.285 115L125.725 98.2001H128.293L131.701 112.192L135.613 98.2001H138.277L142.069 112.24L145.525 98.2001H148.093L143.461 115H140.653L136.885 101.632L133.021 115H130.285ZM154.396 115.288C153.26 115.288 152.236 115.024 151.324 114.496C150.428 113.968 149.716 113.232 149.188 112.288C148.676 111.328 148.42 110.224 148.42 108.976C148.42 107.696 148.684 106.584 149.212 105.64C149.74 104.68 150.46 103.936 151.372 103.408C152.284 102.88 153.308 102.616 154.444 102.616C155.596 102.616 156.62 102.88 157.516 103.408C158.412 103.936 159.116 104.672 159.628 105.616C160.156 106.56 160.42 107.672 160.42 108.952C160.42 110.232 160.156 111.344 159.628 112.288C159.116 113.232 158.404 113.968 157.492 114.496C156.58 115.024 155.548 115.288 154.396 115.288ZM154.396 113.224C155.052 113.224 155.644 113.064 156.172 112.744C156.716 112.424 157.148 111.952 157.468 111.328C157.804 110.688 157.972 109.896 157.972 108.952C157.972 108.008 157.812 107.224 157.492 106.6C157.172 105.96 156.74 105.48 156.196 105.16C155.668 104.84 155.084 104.68 154.444 104.68C153.804 104.68 153.212 104.84 152.668 105.16C152.124 105.48 151.684 105.96 151.348 106.6C151.028 107.224 150.868 108.008 150.868 108.952C150.868 109.896 151.028 110.688 151.348 111.328C151.684 111.952 152.116 112.424 152.644 112.744C153.188 113.064 153.772 113.224 154.396 113.224ZM163.003 115V102.904H165.163L165.379 105.184C165.651 104.64 166.003 104.184 166.435 103.816C166.867 103.432 167.371 103.136 167.947 102.928C168.539 102.72 169.211 102.616 169.963 102.616V105.16H169.099C168.603 105.16 168.131 105.224 167.683 105.352C167.235 105.464 166.835 105.664 166.483 105.952C166.147 106.24 165.883 106.632 165.691 107.128C165.499 107.624 165.403 108.24 165.403 108.976V115H163.003ZM179.535 115L173.967 108.376L179.007 102.904H181.911L175.911 109.312V107.512L182.559 115H179.535ZM171.927 115V97.7201H174.327V115H171.927ZM79.3598 151V136.168H74.3918V134.2H86.7518V136.168H81.7598V151H79.3598ZM92.186 151.288C91.05 151.288 90.026 151.024 89.114 150.496C88.218 149.968 87.506 149.232 86.978 148.288C86.466 147.328 86.21 146.224 86.21 144.976C86.21 143.696 86.474 142.584 87.002 141.64C87.53 140.68 88.25 139.936 89.162 139.408C90.074 138.88 91.098 138.616 92.234 138.616C93.386 138.616 94.41 138.88 95.306 139.408C96.202 139.936 96.906 140.672 97.418 141.616C97.946 142.56 98.21 143.672 98.21 144.952C98.21 146.232 97.946 147.344 97.418 148.288C96.906 149.232 96.194 149.968 95.282 150.496C94.37 151.024 93.338 151.288 92.186 151.288ZM92.186 149.224C92.842 149.224 93.434 149.064 93.962 148.744C94.506 148.424 94.938 147.952 95.258 147.328C95.594 146.688 95.762 145.896 95.762 144.952C95.762 144.008 95.602 143.224 95.282 142.6C94.962 141.96 94.53 141.48 93.986 141.16C93.458 140.84 92.874 140.68 92.234 140.68C91.594 140.68 91.002 140.84 90.458 141.16C89.914 141.48 89.474 141.96 89.138 142.6C88.818 143.224 88.658 144.008 88.658 144.952C88.658 145.896 88.818 146.688 89.138 147.328C89.474 147.952 89.906 148.424 90.434 148.744C90.978 149.064 91.562 149.224 92.186 149.224ZM105.127 156.568C104.023 156.568 103.047 156.424 102.199 156.136C101.351 155.864 100.695 155.44 100.231 154.864C99.7672 154.288 99.5352 153.584 99.5352 152.752C99.5352 152.32 99.6312 151.88 99.8232 151.432C100.015 151 100.327 150.584 100.759 150.184C101.191 149.784 101.775 149.424 102.511 149.104L103.855 150.184C103.039 150.488 102.487 150.848 102.199 151.264C101.927 151.696 101.791 152.112 101.791 152.512C101.791 152.992 101.935 153.392 102.223 153.712C102.511 154.032 102.903 154.272 103.399 154.432C103.911 154.592 104.487 154.672 105.127 154.672C105.751 154.672 106.295 154.584 106.759 154.408C107.223 154.232 107.583 153.984 107.839 153.664C108.095 153.344 108.223 152.968 108.223 152.536C108.223 152.024 108.031 151.592 107.647 151.24C107.263 150.904 106.527 150.704 105.439 150.64C104.527 150.576 103.751 150.488 103.111 150.376C102.487 150.264 101.951 150.128 101.503 149.968C101.071 149.808 100.703 149.632 100.399 149.44C100.111 149.248 99.8632 149.048 99.6552 148.84V148.288L102.055 145.816L103.999 146.488L101.383 148.912L101.887 147.832C102.063 147.944 102.231 148.056 102.391 148.168C102.551 148.264 102.767 148.352 103.039 148.432C103.311 148.512 103.679 148.584 104.143 148.648C104.607 148.712 105.215 148.776 105.967 148.84C107.055 148.92 107.927 149.112 108.583 149.416C109.255 149.72 109.743 150.128 110.047 150.64C110.351 151.152 110.503 151.76 110.503 152.464C110.503 153.152 110.311 153.808 109.927 154.432C109.559 155.056 108.975 155.568 108.175 155.968C107.391 156.368 106.375 156.568 105.127 156.568ZM105.127 147.28C104.103 147.28 103.231 147.088 102.511 146.704C101.807 146.32 101.263 145.8 100.879 145.144C100.511 144.488 100.327 143.76 100.327 142.96C100.327 142.144 100.511 141.416 100.879 140.776C101.263 140.12 101.815 139.6 102.535 139.216C103.255 138.816 104.119 138.616 105.127 138.616C106.135 138.616 106.991 138.816 107.695 139.216C108.415 139.6 108.959 140.12 109.327 140.776C109.711 141.416 109.903 142.144 109.903 142.96C109.903 143.76 109.711 144.488 109.327 145.144C108.959 145.8 108.415 146.32 107.695 146.704C106.991 147.088 106.135 147.28 105.127 147.28ZM105.127 145.36C105.911 145.36 106.535 145.16 106.999 144.76C107.463 144.344 107.695 143.744 107.695 142.96C107.695 142.176 107.463 141.584 106.999 141.184C106.535 140.768 105.911 140.56 105.127 140.56C104.343 140.56 103.711 140.768 103.231 141.184C102.751 141.584 102.511 142.176 102.511 142.96C102.511 143.744 102.751 144.344 103.231 144.76C103.711 145.16 104.343 145.36 105.127 145.36ZM107.095 140.8L106.519 138.904H111.487V140.56L107.095 140.8ZM118.658 151.288C117.506 151.288 116.482 151.024 115.586 150.496C114.69 149.968 113.986 149.232 113.474 148.288C112.978 147.344 112.73 146.248 112.73 145C112.73 143.72 112.978 142.608 113.474 141.664C113.986 140.704 114.69 139.96 115.586 139.432C116.482 138.888 117.522 138.616 118.706 138.616C119.89 138.616 120.906 138.88 121.754 139.408C122.602 139.936 123.258 140.64 123.722 141.52C124.186 142.384 124.418 143.344 124.418 144.4C124.418 144.56 124.41 144.736 124.394 144.928C124.394 145.104 124.386 145.304 124.37 145.528H114.482V143.824H122.018C121.97 142.816 121.634 142.032 121.01 141.472C120.386 140.896 119.61 140.608 118.682 140.608C118.026 140.608 117.426 140.76 116.882 141.064C116.338 141.352 115.898 141.784 115.562 142.36C115.242 142.92 115.082 143.632 115.082 144.496V145.168C115.082 146.064 115.242 146.824 115.562 147.448C115.898 148.056 116.338 148.52 116.882 148.84C117.426 149.144 118.018 149.296 118.658 149.296C119.426 149.296 120.058 149.128 120.554 148.792C121.05 148.456 121.418 148 121.658 147.424H124.058C123.85 148.16 123.498 148.824 123.002 149.416C122.506 149.992 121.89 150.448 121.154 150.784C120.434 151.12 119.602 151.288 118.658 151.288ZM131.484 151C130.732 151 130.076 150.88 129.516 150.64C128.956 150.4 128.524 150 128.22 149.44C127.916 148.88 127.764 148.12 127.764 147.16V140.944H125.676V138.904H127.764L128.052 135.88H130.164V138.904H133.596V140.944H130.164V147.184C130.164 147.872 130.308 148.344 130.596 148.6C130.884 148.84 131.38 148.96 132.084 148.96H133.476V151H131.484ZM136.003 151V133.72H138.403V140.872C138.803 140.168 139.355 139.616 140.059 139.216C140.779 138.816 141.571 138.616 142.435 138.616C143.395 138.616 144.219 138.816 144.907 139.216C145.595 139.6 146.123 140.184 146.491 140.968C146.859 141.736 147.043 142.704 147.043 143.872V151H144.667V144.136C144.667 143 144.427 142.144 143.947 141.568C143.467 140.976 142.755 140.68 141.811 140.68C141.171 140.68 140.595 140.832 140.083 141.136C139.571 141.44 139.163 141.888 138.859 142.48C138.555 143.056 138.403 143.76 138.403 144.592V151H136.003ZM155.344 151.288C154.192 151.288 153.168 151.024 152.272 150.496C151.376 149.968 150.672 149.232 150.16 148.288C149.664 147.344 149.416 146.248 149.416 145C149.416 143.72 149.664 142.608 150.16 141.664C150.672 140.704 151.376 139.96 152.272 139.432C153.168 138.888 154.208 138.616 155.392 138.616C156.576 138.616 157.592 138.88 158.44 139.408C159.288 139.936 159.944 140.64 160.408 141.52C160.872 142.384 161.104 143.344 161.104 144.4C161.104 144.56 161.096 144.736 161.08 144.928C161.08 145.104 161.072 145.304 161.056 145.528H151.168V143.824H158.704C158.656 142.816 158.32 142.032 157.696 141.472C157.072 140.896 156.296 140.608 155.368 140.608C154.712 140.608 154.112 140.76 153.568 141.064C153.024 141.352 152.584 141.784 152.248 142.36C151.928 142.92 151.768 143.632 151.768 144.496V145.168C151.768 146.064 151.928 146.824 152.248 147.448C152.584 148.056 153.024 148.52 153.568 148.84C154.112 149.144 154.704 149.296 155.344 149.296C156.112 149.296 156.744 149.128 157.24 148.792C157.736 148.456 158.104 148 158.344 147.424H160.744C160.536 148.16 160.184 148.824 159.688 149.416C159.192 149.992 158.576 150.448 157.84 150.784C157.12 151.12 156.288 151.288 155.344 151.288ZM163.531 151V138.904H165.691L165.907 141.184C166.179 140.64 166.531 140.184 166.963 139.816C167.395 139.432 167.899 139.136 168.475 138.928C169.067 138.72 169.739 138.616 170.491 138.616V141.16H169.627C169.131 141.16 168.659 141.224 168.211 141.352C167.763 141.464 167.363 141.664 167.011 141.952C166.675 142.24 166.411 142.632 166.219 143.128C166.027 143.624 165.931 144.24 165.931 144.976V151H163.531ZM173.031 146.008L172.743 134.2H175.335L175.071 146.008H173.031ZM174.063 151.12C173.599 151.12 173.215 150.976 172.911 150.688C172.623 150.384 172.479 150.024 172.479 149.608C172.479 149.176 172.623 148.816 172.911 148.528C173.215 148.224 173.599 148.072 174.063 148.072C174.511 148.072 174.879 148.224 175.167 148.528C175.471 148.816 175.623 149.176 175.623 149.608C175.623 150.024 175.471 150.384 175.167 150.688C174.879 150.976 174.511 151.12 174.063 151.12Z" fill="#EDF2F5"/>
</svg>
